<?xml version="1.0" encoding="UTF-8"?>
<svg width="26px" height="27px" viewBox="0 0 26 27" version="1.1" xmlns="http://www.w3.org/2000/svg" xmlns:xlink="http://www.w3.org/1999/xlink">
    <!-- Generator: Sketch 52.5 (67469) - http://www.bohemiancoding.com/sketch -->
    <title>Logo Copy</title>
    <desc>Created with Sketch.</desc>
    <g id="Logo-Copy" stroke="none" stroke-width="1" fill="none" fill-rule="evenodd">
        <g id="Running-Man">
            <path d="M8.61925264,1.34512055 C11.2011227,-0.225566402 13.0613619,4.69286428 12.2898268,5.81022654 C11.5192423,6.92803809 8.8351874,8.31661641 7.7666034,6.05987711 C6.69722727,3.80208949 7.5376777,2.00256866 8.61925264,1.34512055" id="Fill-1" fill="#7F51A0"></path>
            <path d="M8.61925264,1.34512055 C11.2011227,-0.225566402 13.0613619,4.69286428 12.2898268,5.81022654 C11.5192423,6.92803809 8.8351874,8.31661641 7.7666034,6.05987711 C6.69722727,3.80208949 7.5376777,2.00256866 8.61925264,1.34512055 Z" id="Stroke-3" stroke="#7F51A0" stroke-width="0.507"></path>
            <path d="M13.5048544,7.26923077 C15.5089854,4.38097857 19.7178561,-0.783848076 20.8024676,0.100486445 C21.8876812,0.985603564 26.8144091,5.48647498 25.8453771,6.5742847 C24.8761946,7.66162487 20.8188715,3.72844926 20.3898126,3.09266752 C19.9606032,2.45672926 13.5048544,7.26923077 13.5048544,7.26923077" id="Fill-5" fill="#7F51A0"></path>
            <path d="M13.5048544,7.26923077 C15.5089854,4.38097857 19.7178561,-0.783848076 20.8024676,0.100486445 C21.8876812,0.985603564 26.8144091,5.48647498 25.8453771,6.5742847 C24.8761946,7.66162487 20.8188715,3.72844926 20.3898126,3.09266752 C19.9606032,2.45672926 13.5048544,7.26923077 13.5048544,7.26923077 Z" id="Stroke-7" stroke="#7F51A0" stroke-width="0.507"></path>
            <path d="M12.4660194,7.26923077 C10.6411397,10.1063137 6.74901333,15.2189949 5.60027337,14.4631051 C4.45198841,13.706628 -0.798939263,9.82146009 0.103793804,8.738576 C1.0063752,7.6565729 5.34501467,11.0689426 5.81867653,11.6352726 C6.29218672,12.2018963 12.4660194,7.26923077 12.4660194,7.26923077" id="Fill-9" fill="#7F51A0"></path>
            <path d="M12.4660194,7.26923077 C10.6411397,10.1063137 6.74901333,15.2189949 5.60027337,14.4631051 C4.45198841,13.706628 -0.798939263,9.82146009 0.103793804,8.738576 C1.0063752,7.6565729 5.34501467,11.0689426 5.81867653,11.6352726 C6.29218672,12.2018963 12.4660194,7.26923077 12.4660194,7.26923077 Z" id="Stroke-11" stroke="#7F51A0" stroke-width="0.507"></path>
            <path d="M13.4294146,7.2875612 C9.14360231,7.93974601 20.5121845,11.5357619 21.0897282,15.8388983 C19.9398799,17.4190418 13.8904634,20.5650862 14.3980486,22.8298124 C14.9056337,25.0940691 20.5507079,26.6339891 22.9638177,26.9693939 C25.3760028,27.3041728 25.2947954,24.7999834 24.1924079,23.9723488 C23.090791,23.1451838 17.101317,22.0081253 17.6538976,21.455169 C18.20617,20.9028387 21.9016487,16.6524468 21.3638612,14.5675527 C20.824995,12.4837541 15.9095552,6.9094286 13.4294146,7.2875612" id="Fill-13" fill="#7F51A0"></path>
            <path d="M13.4294146,7.2875612 C9.14360231,7.93974601 20.5121845,11.5357619 21.0897282,15.8388983 C19.9398799,17.4190418 13.8904634,20.5650862 14.3980486,22.8298124 C14.9056337,25.0940691 20.5507079,26.6339891 22.9638177,26.9693939 C25.3760028,27.3041728 25.2947954,24.7999834 24.1924079,23.9723488 C23.090791,23.1451838 17.101317,22.0081253 17.6538976,21.455169 C18.20617,20.9028387 21.9016487,16.6524468 21.3638612,14.5675527 C20.824995,12.4837541 15.9095552,6.9094286 13.4294146,7.2875612 Z" id="Stroke-15" stroke="#7F51A0" stroke-width="0.507"></path>
        </g>
    </g>
</svg>